PathFileType	4	(X/Y/Z)	C:/Users/beibeiliu/ov580/test_trc/capture2\sequence.25_training_dense_left.trc
DataRate	CameraRate	NumFrames	NumMarkers	Units	OrigDataRate	OrigDataStartFrame	OrigNumFrames
120	120	16	19	mm	120	43	343
Frame#	Time	ThumbCMC			ThumbMCP			ThumbIP			ThumbTip			IndexMCP			IndexPIP			IndexTip			MiddleMCP			MiddlePIP			MiddleTip			RingMCP			RingPIP			RingTip			PinkyMCP			PinkyPIP			PinkyTip			BackHand1			BackHand2			BackHand3	
		X0	Y0	Z0	X1	Y1	Z1	X2	Y2	Z2	X3	Y3	Z3	X4	Y4	Z4	X5	Y5	Z5	X6	Y6	Z6	X7	Y7	Z7	X8	Y8	Z8	X9	Y9	Z9	X10	Y10	Z10	X11	Y11	Z11	X12	Y12	Z12	X13	Y13	Z13	X14	Y14	Z14	X15	Y15	Z15	X16	Y16	Z16	X17	Y17	Z17	X18	Y18	Z18	
42	0.35	-165.137	88.8654	18.5156	-155.911	108.804	0.922314	-151.163	114.198	-27.9478	-147.126	119.264	-47.7281	-153.92	95.5122	-47.0854	-124.602	101.76	-35.7694	-137.983	87.4145	-7.47912	-137.014	75.3986	-50.4242	-113.74	83.8965	-32.4146	-134.7	77.9826	-0.391514	-132.182	55.4341	-50.877	-107.792	69.017	-34.7401	-124.544	68.7411	-6.13557	-137.131	26.9558	-49.8915	-127.16	31.1221	-70.9391	-118.008	33.1641	-93.8305	-168.154	32.5842	-9.35996	-169.871	28.9244	19.9511	-181.968	58.4908	8.56611	
43	0.358333	-162.596	91.6441	21.9347	-151.581	106.288	1.09492	-148.448	118.045	-21.7097	-144.086	123.502	-48.8491	-148.085	94.501	-47.4236	-121.798	104.787	-37.4752	-129.965	88.3255	-7.77226	-138.672	74.2611	-48.3999	-112.646	87.3399	-30.1104	-128.99	76.9901	-0.817773	-130.842	60.2478	-51.8442	-107.7	70.323	-38.1446	-121.175	66.1283	-4.55686	-140.349	32.2313	-52.1849	-128.934	32.3199	-70.394	-120.743	33.3642	-91.6508	-169.411	37.1463	-12.0483	-169.925	27.9298	19.5009	-181.346	63.1258	10.4093	
44	0.366667	-156.942	89.8016	24.646	-145.785	111.619	3.34999	-144.146	123.546	-24.9518	-140.296	123.489	-45.974	-147.455	99.745	-43.8604	-117.826	103.696	-37.9807	-128.42	87.5378	-7.05067	-139.818	79.65	-46.9961	-110.543	84.6659	-34.205	-126.041	78.3032	0.572126	-130.108	61.3571	-52.5189	-106.484	69.7849	-39.2009	-119.066	65.8052	-5.00337	-142.816	33.933	-48.4304	-129.579	34.7814	-73.0042	-121.412	39.3333	-96.0748	-169.396	40.2846	-9.57954	-171.788	36.6356	19.6092	-180.73	69.0019	8.37293	
45	0.375	-150.892	94.6135	24.6448	-138.564	112.296	2.53419	-134.72	121.204	-19.2083	-132.248	127.913	-39.7682	-142.825	104.021	-42.7336	-113.308	104.321	-34.586	-123.484	89.7282	-6.44481	-134.836	83.304	-47.2323	-107.116	81.4829	-30.3263	-121.462	76.7276	0.68032	-134.566	66.5069	-51.1737	-107.056	69.847	-40.0622	-119.444	65.9791	-4.67832	-145.444	37.467	-53.5602	-133.791	36.7977	-72.0254	-126.492	40.1684	-93.7767	-170.28	41.7524	-8.90415	-173.747	39.9905	22.4323	-176.512	72.6295	12.6139	
46	0.383333	-145.629	98.8543	24.8385	-129.881	115.144	6.77007	-126.792	124.064	-17.1484	-124.453	126.894	-42.6387	-139.021	107.503	-40.828	-108.591	102.771	-38.017	-119.09	86.1728	-8.24265	-133.278	87.6822	-46.7282	-103.925	83.6149	-29.9185	-118.783	75.8345	0.226596	-134.373	63.5098	-51.7001	-105.668	69.5825	-39.0041	-115.167	62.8635	-5.96109	-149.296	42.251	-54.2835	-140.659	43.8365	-69.4779	-129.141	45.112	-92.6298	-172.175	52.3497	-8.89656	-172.404	43.5605	22.9187	-172.544	79.5336	14.4011	
47	0.391667	-137.852	99.8336	28.096	-123.447	110.211	6.39846	-118.071	127.618	-17.729	-114.576	132.473	-38.1202	-132.006	110.212	-41.2663	-105.185	104.391	-37.4694	-113.169	89.6372	-5.80633	-134.13	87.7438	-45.3868	-102.842	79.692	-34.0111	-116.248	76.737	0.725389	-131.145	68.1309	-51.5724	-105.908	68.0784	-38.321	-115.678	62.9316	-4.3195	-152.347	48.432	-50.4449	-141.406	47.6456	-72.3892	-130.657	50.5156	-96.0379	-170.899	55.6377	-5.15702	-174.089	51.5297	21.334	-170.312	84.4654	16.4664	
48	0.4	-134.75	98.1542	31.3016	-118.664	110.032	8.73908	-112.352	128.051	-15.1034	-111.344	129.276	-39.0679	-131.678	112.17	-39.6815	-102.806	101.505	-37.822	-110.799	88.2334	-7.07782	-133.06	88.1959	-45.323	-101.647	83.791	-33.1841	-115.108	79.7384	1.13018	-134.771	72.7168	-47.6242	-104.96	64.3045	-36.566	-117.41	68.0142	-3.70875	-153.587	49.8415	-53.9246	-142.576	52.4111	-74.9169	-134.102	53.0781	-94.145	-172.81	58.1808	-4.89202	-172.759	52.7262	20.5978	-168.637	82.9264	17.8635	
49	0.408333	-131.737	102.805	29.554	-117.226	110.957	9.93136	-110.995	125.642	-13.3115	-108.187	132.293	-37.4835	-129.052	112.939	-39.9727	-101.308	103.023	-35.0624	-108.298	91.2807	-6.57647	-131.723	91.6502	-45.7037	-102.922	82.3083	-35.3318	-116.146	75.2383	0.755433	-134.593	72.7106	-50.0618	-105.756	68.1853	-36.5206	-115.231	64.467	-4.54923	-156.153	54.648	-46.3139	-145.695	55.4223	-70.9543	-133.516	52.414	-97.0301	-173.803	63.4936	-6.00738	-171.107	56.6176	24.2656	-166.425	87.5387	18.6119	
50	0.416667	-130.516	100.456	34.2064	-115.634	114.269	10.4243	-109.377	125.829	-11.8346	-105.375	134.658	-35.1604	-131.16	115.19	-35.2206	-101.513	100.698	-37.1513	-105.497	91.5327	-6.85977	-132.361	91.9168	-44.7648	-102.539	82.5793	-36.1658	-112.104	75.5482	-2.30549	-137.401	75.1826	-48.8495	-106.325	66.5754	-37.8983	-117.073	66.8608	-4.70265	-156.542	54.2441	-50.868	-147.281	51.1797	-71.9116	-132.824	54.9331	-93.3935	-173.23	64.5153	-2.98797	-173.892	55.7923	23.3777	-166.398	88.7668	18.9689	
51	0.425	-129.44	101.246	34.4856	-112.675	117.08	13.4807	-108.57	126.033	-11.5863	-105.764	133.989	-38.3662	-129.741	113.872	-37.8909	-101.319	102.859	-36.6704	-108.618	90.3017	-5.0639	-132.939	93.4739	-44.6372	-103.033	86.8646	-39.4832	-114.628	76.9133	-0.0374535	-136.902	78.1404	-49.1336	-107.257	71.2979	-39.9455	-114.786	65.5249	-8.77211	-158.523	52.0409	-48.2691	-144.669	53.6926	-74.3577	-125.359	57.7149	-90.52	-172.116	67.4799	-3.91764	-172.668	54.7631	24.0422	-165.641	92.337	19.4623	
52	0.433333	-132.099	99.9207	30.6907	-114.993	113.925	14.0838	-109.099	131.218	-15.4884	-106.29	132.97	-37.66	-131.378	112.013	-38.4544	-102.362	101.393	-38.5648	-109.474	89.6332	-6.67728	-130.932	92.1538	-48.3725	-102.993	86.1744	-40.1995	-111.111	81.3777	-2.82306	-139.651	73.4443	-49.7052	-108.828	71.0131	-42.1222	-116.27	66.9617	-8.64083	-158.295	52.8628	-49.4039	-142.868	53.8034	-74.2379	-118.051	54.8054	-91.0148	-171.265	68.2476	-5.0472	-174.653	54.7059	26.2689	-165.344	93.4906	17.5778	
53	0.441667	-129.675	101.141	33.7021	-114.506	117.331	9.95389	-107.392	131.179	-14.0287	-105.659	131.653	-35.6506	-131.628	113.213	-37.8917	-101.627	102.112	-37.8145	-105.529	91.2783	-8.43844	-131.075	96.6936	-47.037	-102.602	84.5009	-38.5955	-112.259	78.9582	-4.01572	-137.691	79.3205	-49.5626	-110.496	69.4157	-43.1914	-113.664	69.1698	-10.5586	-159.324	56.9694	-48.4377	-143.653	56.1819	-72.7963	-119.141	56.5832	-86.8413	-175.108	65.9375	-1.52777	-174.413	58.4021	25.4531	-164.54	95.5093	18.3482	
54	0.45	-129.407	102.852	29.9269	-113.494	113.835	11.7984	-106.356	129.02	-12.817	-104.548	130.731	-35.1837	-130.584	113.123	-38.3992	-100.353	99.6098	-36.8017	-106.51	89.6174	-8.59123	-135.042	92.5908	-47.6906	-104.392	83.5982	-38.887	-112.851	79.277	-4.02407	-140.082	74.5655	-49.128	-110.414	65.3319	-39.7905	-116.994	67.9726	-9.23	-159.712	57.2683	-50.8727	-144.097	55.5577	-72.0823	-117.907	57.5731	-82.9479	-175.467	68.5951	-2.84979	-173.138	56.9379	26.6004	-161.953	94.5879	20.0981	
55	0.458333	-128.355	99.1084	30.278	-111.587	114.305	9.33626	-106.627	124.633	-13.1802	-102.156	134.046	-36.868	-131.863	112.606	-37.2143	-102.903	98.7625	-38.6862	-108.696	87.7972	-8.33739	-134.641	95.4348	-46.2451	-104.004	83.5537	-39.7909	-112.415	74.7738	-6.9393	-141.262	78.3527	-46.61	-110.077	65.2431	-36.5544	-118.841	66.4699	-6.83021	-162.111	56.7758	-49.3782	-147.725	56.6367	-70.1465	-117.407	53.5824	-85.0277	-173.481	72.2926	-0.765374	-173.309	63.163	26.4178	-163.663	94.3472	23.4094	
56	0.466667	-127.435	101.464	29.1153	-110.865	114.521	9.3229	-105.242	127.864	-13.957	-102.333	133.861	-35.0927	-128.297	114.741	-38.3002	-101.699	100.058	-38.7285	-106.447	87.9701	-9.50035	-133.422	95.1999	-47.5551	-106.097	79.5653	-38.7676	-116.955	74.3969	-4.31725	-141.778	77.6066	-46.1276	-112.344	64.2015	-35.5266	-121.826	68.6132	-4.5359	-163.507	60.5686	-45.6888	-151.573	57.7638	-69.1726	-126.165	53.1353	-88.4968	-177.04	72.6179	-5.26209	-176.557	61.7335	28.48	-160.474	97.6247	19.9478	
57	0.475	-126.613	97.3732	31.0038	-112.442	109.883	9.28688	-109.162	122.253	-17.8259	-106.991	129.398	-37.8398	-126.097	113.587	-39.759	-103.939	95.6621	-40.4311	-109.806	86.5151	-9.6897	-135.182	93.62	-48.0559	-108.938	78.9932	-43.1269	-118.138	74.7776	-3.9802	-139.004	77.627	-48.8897	-113.144	65.6199	-37.7441	-120.133	65.6129	-7.32211	-166.131	60.7133	-47.5738	-154.391	56.5007	-73.1171	-138.71	53.5676	-93.3564	-175.933	72.473	-2.45954	-174.85	67.5839	28.1052	-161.793	96.4858	21.7816	
